Coordinates
version=1
nRows=5
nColumns=42
inDegrees=yes

Units are S.I. units (second, meters, Newtons, ...)
If the header above contains a line with 'inDegrees', this indicates whether rotational values are in degrees (yes) or radians (no).

endheader
time	pelvis_tilt	pelvis_list	pelvis_rotation	pelvis_tx	pelvis_ty	pelvis_tz	hip_flexion_r	hip_adduction_r	hip_rotation_r	knee_angle_r	knee_adduction_r	knee_angle_r_beta	ankle_angle_r	subtalar_angle_r	mtp_angle_r	hip_flexion_l	hip_adduction_l	hip_rotation_l	knee_angle_l	knee_adduction_l	knee_angle_l_beta	ankle_angle_l	subtalar_angle_l	mtp_angle_l	lumbar_extension	lumbar_bending	lumbar_rotation	arm_flex_r	arm_add_r	arm_rot_r	elbow_flex_r	pro_sup_r	wrist_flex_r	wrist_dev_r	arm_flex_l	arm_add_l	arm_rot_l	elbow_flex_l	pro_sup_l	wrist_flex_l	wrist_dev_l
      1.18000000	      3.59876706	     -3.25906454	     10.45572564	     -0.94257714	      0.85337581	     -0.24863551	     23.66724793	      6.39400645	     -7.26953484	     31.09255405	     -2.72630585	      0.54266744	     11.13941887	    -18.24284621	     -7.56420895	      7.70800191	      1.01447978	      4.18236886	     62.01681450	     -9.57685757	      1.08239760	     18.80170135	    -18.56023741	     -7.56420895	    -30.66135429	      7.04220265	     -7.19496819	      6.02432783	     -5.02974813	    -14.30275771	     25.35866010	     90.00000001	      0.00000000	      0.00000000	     24.75584155	    -16.38662483	     -5.04226961	     43.35749118	     90.00000001	      0.00000000	      0.00000000
      1.19000000	      3.40606770	     -3.62744819	     10.58227049	     -0.93351296	      0.85397754	     -0.24662065	     23.10176284	      6.98972571	     -8.23019710	     30.66392279	     -3.00562160	      0.53518641	     11.74514281	    -17.99694524	     -7.56210085	      9.17199369	      0.62918379	      6.93772130	     64.93370211	     -7.63473255	      1.13330690	     17.43123092	    -18.91128238	     -7.56210085	    -30.41287178	      7.37728322	     -7.00904482	      6.24154427	     -5.15587620	    -14.29777543	     25.62065493	     90.00000001	      0.00000000	      0.00000000	     24.25391721	    -16.06596632	     -5.63538732	     43.18809248	     90.00000001	      0.00000000	      0.00000000
      1.20000000	      3.18286340	     -3.99042614	     10.70404983	     -0.92458078	      0.85440573	     -0.24470225	     22.58959792	      7.56568196	     -9.02571637	     30.27191641	     -3.20057666	      0.52834461	     12.34201692	    -17.74540381	     -7.55981612	     10.74052449	      0.30308166	      9.78003860	     67.65924032	     -5.53409090	      1.18087651	     16.48556583	    -19.10788446	     -7.55981612	    -30.13773420	      7.71084948	     -6.81603765	      6.51244345	     -5.31635553	    -14.22195993	     25.94991384	     90.00000001	      0.00000000	      0.00000000	     23.75410676	    -15.71110187	     -6.22610299	     42.98677503	     90.00000001	      0.00000000	      0.00000000
      1.21000000	      3.02291621	     -4.37072530	     10.75486171	     -0.91551917	      0.85481035	     -0.24281766	     21.93684739	      8.26617594	     -9.48009608	     29.72136114	     -3.40493566	      0.51873561	     12.99856896	    -17.54500981	     -7.55878154	     12.33201703	     -0.10816960	     11.53389303	     70.08900477	     -4.18538609	      1.22328390	     15.66541976	    -19.21660875	     -7.55878154	    -29.89515956	      8.05220860	     -6.53735103	      6.78809244	     -5.50878999	    -14.16154544	     26.21112887	     90.00000001	      0.00000000	      0.00000000	     23.17764456	    -15.38710021	     -6.47947827	     42.78751852	     90.00000001	      0.00000000	      0.00000000
      1.22000000	      2.77745179	     -4.66951576	     10.84941720	     -0.90683536	      0.85502121	     -0.24106896	     21.52067412	      8.72256987	     -9.88811207	     29.49956898	     -3.36023896	      0.51486461	     13.55694010	    -17.37759184	     -7.55705135	     14.00262371	     -0.30975199	     14.18989773	     72.26480459	     -2.04524808	      1.26125877	     15.59891545	    -19.33485781	     -7.55705135	    -29.64368122	      8.31200058	     -6.30256245	      7.10476838	     -5.69971414	    -13.99204728	     26.61582847	     90.00000001	      0.00000000	      0.00000000	     22.64787643	    -15.02001460	     -6.99648225	     42.52936155	     90.00000001	      0.00000000	      0.00000000
